# xmcd CD database file
#
# Track frame offsets:
#	150
#	18625
#	33750
#	46675
#	62875
#	81025
#	92912
#	117437
#	136525
#	151937
#	165200
#	177535
#	193425
#	209312
#	221800
#	236250
#	248850
#	263312
#	276275
#	295112
#	309025
#
# Disc length: 4374 seconds
#
# Revision: 6
# Processed by: cddbd v1.5.2PL0 Copyright (c) Steve Scherf et al.
# Submitted via: CDex 1.70beta2
#
DISCID=1a111415
DTITLE=Freud Marx Engels and Jung - Koottuja Teoksia
DYEAR=1993
DGENRE=Country
TTITLE0=Särkynyt sydämiset (Viekää minut baariin)
TTITLE1=Buuri Johannesburgista
TTITLE2=En koskaan mene sänkyyn ruman naisen kanssa
TTITLE3=Kylmä sää
TTITLE4=Töölööseen
TTITLE5=Rakkauden kirkas valo
TTITLE6=Sunnuntaiaamun kadut
TTITLE7=Mystinen metsätyömies
TTITLE8=Mustelmilla
TTITLE9=Mustasukkaisuus blues
TTITLE10=Niin kauas kuin tunteet vie meidät
TTITLE11=Danny Show
TTITLE12=Dracula ja Pyhä Nicolae
TTITLE13=Nattasia katsomassa eli pekuulijenkka twist
TTITLE14=Aina ja iankaiken, aamen
TTITLE15=Jeesus oli mutakuono
TTITLE16=Tili meni
TTITLE17=Juomalaulu II½
TTITLE18=Kipee
TTITLE19=Keltaparta
TTITLE20=Lintumies
EXTD=twetrwretwweer YEAR: 1993
EXTT0=Mozart: Clarinett Quintett KV581
EXTT1=Franz von Suppè
EXTT2=Jacques Offenbach
EXTT3=Pietro Mascagni
EXTT4=Alexis E. Chabrier
EXTT5=Johann Strauss
EXTT6=Aram Khachaturian
EXTT7=Alexis E. Chabrier
EXTT8=Hubert Bath
EXTT9=Jacques Offenbach
EXTT10=Jacques Offenbach
EXTT11=Schola Cantorum Of New York/Hugh Ross
EXTT12=Renata Scotto/Carlo Bergonzi
EXTT13=Renata Scotto/Carlo Bergonzi
EXTT14=Gwendolyn Killebrew/Carlo Bergonzi
EXTT15=Vicente Sardinero/Gwendolyn Killebrew
EXTT16=Written and composed by: Matthias Ziegler
EXTT17=Written and composed by: Diego Ortiz
EXTT18=Written and composed by: Matthias Ziegler
EXTT19=Written and composed by: Diego Ortiz
EXTT20=Written and composed by: Matthias Ziegler
PLAYORDER=
